<mxfile host="app.diagrams.net" modified="2023-03-30T19:05:38.428Z" agent="Mozilla/5.0 (X11; Linux x86_64) AppleWebKit/537.36 (KHTML, like Gecko) Chrome/109.0.0.0 Safari/537.36" version="21.1.2" etag="HuRtdysQsUS41X8rCrXp" type="github">
  <diagram name="PÃ¡gina-1" id="GscOnFD-C09wWUHjPpFa">
    <mxGraphModel>
      <root>
        <mxCell id="0" />
        <mxCell id="1" parent="0" />
      </root>
    </mxGraphModel>
  </diagram>
</mxfile>
